<svg xmlns="http://www.w3.org/2000/svg" viewBox="0 0 100 69" fill="none">
<g clip-path="url(#clip0_57_147)">
<path d="M63.3664 0H67.1288C72.0298 0.510949 76.6337 3.37226 79.2575 7.66423C82.6238 12.8759 82.7723 20.0803 79.6535 25.4964C76.9803 30.146 72.0298 33.1606 66.8813 33.6204C65.8912 33.8248 64.7525 33.6715 63.9605 34.3358C61.9803 35.8686 60.2476 37.8102 57.8713 38.781C55.2971 39.8029 52.1783 40.1606 49.7525 38.6277C47.5743 37.3504 46.4357 34.7445 46.2872 32.2409C45.8911 28.1022 49.4555 24.6788 48.6139 20.489C48.1684 17.8832 47.8218 15.2263 48.4654 12.6204C50.0991 5.67153 56.5347 0.510949 63.3664 0ZM61.5842 2.91241C57.0793 4.18978 52.7723 7.25547 50.8912 11.8029C48.3169 18.9562 52.2773 27.6423 59.1585 30.3504C66.1882 33.7737 75.2476 29.8394 78.4159 22.6861C80.0991 18.9562 79.802 14.5109 78.0199 10.8832C75.1981 4.75182 68.0199 1.0219 61.5842 2.91241ZM49.7525 27.438C51.4852 31.781 56.2377 34.0292 60.5941 34.1314C60.7426 32.8029 59.3565 33.1095 58.5149 32.854C54.703 32.0876 51.1882 29.2774 50.0496 25.3431C48.8119 25.5985 49.6535 26.7737 49.7525 27.438ZM48.4654 29.4307C48.5149 32.854 51.8812 34.8978 54.604 35.9708C55.4951 36.1752 56.9308 36.9927 57.5743 35.9197C55.2971 35.3577 52.9209 34.5912 51.1387 33.0073C50.0001 32.0876 49.3565 30.6569 48.4654 29.4307ZM47.9209 33.0073C48.0199 35.5109 50.3961 37.0438 52.4753 37.8613C53.1684 38.0146 54.1585 38.6277 54.604 37.7591C51.7327 37.2482 49.604 35.2555 47.9209 33.0073Z" fill="#29166f"/>
<path d="M78.6139 2.75912C84.0594 2.65693 89.8515 2.55474 94.6535 5.51824C97.6238 7.25547 99.703 10.4744 100 14.0511V16.0949C99.0099 24.4744 93.2178 31.1168 87.6733 36.8394C82.9208 41.7445 77.5743 45.9854 71.8812 49.6642C61.9802 56.1022 51.3861 61.4672 40.198 65.0949C34.4554 66.9854 28.5149 68.2117 22.4752 68.5182H15.2475C11.1386 68.0073 6.68317 67.3431 3.51485 64.3796C1.38614 62.489 0.247525 59.6788 0 56.8175V54.6715C0.39604 51.1971 1.63366 47.927 3.51485 45.0657C7.37624 38.5255 12.7228 33.0584 18.5644 28.4088C26.8317 21.2044 36.6337 16.4525 46.3861 11.9051C46.2376 12.8248 46.0891 13.7445 45.9406 14.6642C39.703 17.1168 34.3069 21.3066 28.9604 25.3431C22.6238 30.3504 16.3366 36.0219 12.9703 43.5839C11.6832 46.8029 10.6931 50.5328 11.6832 54.0073C12.9208 57.5839 16.6337 59.2701 19.9505 60.0876C25.6931 61.4161 31.7822 61.4672 37.5248 60.2409C43.9109 58.8613 50.1485 56.562 56.0891 53.7518C61.1386 51.2482 66.2376 48.7956 70.8416 45.5255C78.4158 40.8759 85.198 34.8467 90.7426 27.7445C92.6238 25.1898 94.4059 22.4817 95.297 19.365C96.2871 15.5839 95.495 10.9343 92.3267 8.43065C89.0099 5.82481 84.6535 5.36496 80.5941 5.36496C79.9505 4.49634 79.2574 3.62773 78.6139 2.75912Z" fill="#29166f"/>
<path d="M81.4355 6.69342C84.2078 6.8978 87.2276 7.40875 89.3068 9.50364C91.188 11.3942 91.584 14.3577 90.9404 16.9124C89.8018 22.073 86.6335 26.416 83.0692 30.0438C72.1286 40.6715 58.4652 48.489 43.6632 51.4014C39.0097 52.2701 34.2078 52.781 29.4553 52.2701C26.9305 51.8613 24.1088 51.146 22.4256 48.9489C21.0394 47.0584 21.0394 44.5036 21.683 42.3066C22.9206 37.9635 25.5444 34.2336 28.3167 30.7591C31.5345 26.927 35.1484 23.3504 39.3563 20.6934C41.485 19.3139 43.5642 17.7299 45.8909 16.7591C46.1385 18.6496 46.6335 20.5401 46.683 22.4817C45.6434 26.4671 43.4652 30.5036 44.7028 34.7445C45.5939 38.781 49.4058 41.7956 53.4157 41.489C57.4256 41.6423 60.6929 39.0365 63.8117 36.7883C65.2969 35.562 67.2771 35.9708 68.9602 35.6131C74.4058 34.6423 79.1088 30.7591 81.8315 25.854C85.1979 20.0292 84.9008 12.365 81.4355 6.69342Z" fill="#009541"/>
<path d="M52.5247 12.7737H53.3662L53.5643 13.1314C54.1583 12.7737 54.8514 12.6205 55.594 12.6205C56.4851 12.6205 57.1781 12.8248 57.7722 13.1825C58.3662 13.5402 58.6138 14.1022 58.6138 14.7664C58.6138 15.6861 58.1187 16.3504 57.0791 16.708C58.3167 16.9635 58.9108 17.6278 58.9108 18.7007C58.9108 19.4672 58.5643 20.0803 57.9207 20.5402C57.2771 21 56.4355 21.2555 55.495 21.2555C54.4058 21.2555 53.5643 21.0511 52.9702 20.5913C52.3761 20.1314 51.8811 19.5694 51.4355 18.8029L52.3266 18.1387C53.1187 19.3139 54.0593 19.927 55.1979 19.927C55.7425 19.927 56.188 19.8248 56.4355 19.5183C56.6831 19.2117 56.8316 18.9562 56.8316 18.5986C56.8316 18.2409 56.7326 17.9343 56.4851 17.7299C56.2375 17.5256 55.792 17.4234 55.1484 17.4234H54.1088V16.1971H54.9999C55.6435 16.1971 56.089 16.0949 56.3365 15.8905C56.5841 15.6861 56.6831 15.4307 56.6831 15.1241C56.6831 14.7153 56.5346 14.4599 56.287 14.2555C56.0395 14.0511 55.693 14 55.2969 14C54.7029 14 54.2573 14.2044 53.8613 14.5621C53.4653 14.9708 53.1682 15.4818 52.8712 16.0949L51.7821 15.7883L52.5247 12.7737Z" fill="#29166f"/>
<path d="M66.0891 12.7737H66.9307L67.7227 15.7883L66.6336 16.0949C66.2871 15.3796 65.9406 14.8686 65.594 14.5621C65.1485 14.1533 64.6534 13.9489 64.1584 13.9489C63.7623 13.9489 63.4158 14.0511 63.1188 14.2555C62.8217 14.4599 62.5247 14.7664 62.3267 15.2263C62.1287 15.6861 62.0297 16.146 62.0297 16.708C62.0297 17.5767 62.2277 18.292 62.6732 18.9051C63.1188 19.5183 63.6633 19.8248 64.4059 19.8248C64.8515 19.8248 65.297 19.6715 65.693 19.4161C66.2376 19.1095 66.6831 18.6497 67.0297 18.0876L67.9208 18.7518C67.3267 19.5694 66.7821 20.1314 66.3366 20.4891C65.594 21 64.7524 21.2555 63.8614 21.2555C63.1188 21.2555 62.4257 21.0511 61.7821 20.6934C61.1386 20.3358 60.693 19.7737 60.297 19.1095C59.901 18.4453 59.7524 17.6788 59.7524 16.9124C59.7524 16.0949 59.9505 15.3796 60.297 14.7153C60.6435 14.0511 61.1386 13.5402 61.7821 13.1825C62.4257 12.8248 63.0693 12.6205 63.8614 12.6205C64.6534 12.6205 65.297 12.7737 65.8911 13.1314L66.0891 12.7737Z" fill="#29166f"/>
<path d="M68.6138 12.7737H72.5742V13.9489H72.3266C72.0791 13.9489 71.9306 13.9489 71.8811 14C71.7821 14.0511 71.7326 14.1022 71.6831 14.2044C71.6336 14.3066 71.6336 14.4088 71.6336 14.6643V16.9124L74.1583 14.511C74.2573 14.4088 74.3563 14.3066 74.3563 14.3066C74.3563 14.3066 74.4058 14.2555 74.4058 14.2044C74.4058 14.1533 74.4058 14.1022 74.3563 14.1022C74.3068 14.1022 74.2078 14.0511 74.0098 14.0511H73.6633V12.7737H77.3266V13.9489H77.2276C77.0791 13.9489 76.9306 13.9489 76.8811 14C76.8316 14.0511 76.7326 14.0511 76.6336 14.1022C76.5346 14.1533 76.4356 14.2555 76.287 14.4088L74.3068 16.146L76.6336 19.4161C76.8316 19.6716 76.9801 19.8759 77.0791 19.927C77.1781 19.9781 77.3761 20.0292 77.6237 20.0292H77.7722V21.2044H73.7128V20.0292H73.8613C74.1583 20.0292 74.3563 20.0292 74.4058 19.9781C74.4554 19.927 74.5049 19.927 74.5049 19.8759C74.5049 19.8248 74.4554 19.7226 74.3068 19.5183L72.8712 17.4234L71.6336 18.4964V19.3139C71.6336 19.5183 71.6336 19.6716 71.6831 19.7226C71.7326 19.8248 71.7821 19.8759 71.8316 19.8759C71.8811 19.8759 72.0296 19.927 72.2771 19.927H72.6237V21.1022H68.6633V19.927H68.9603C69.2078 19.927 69.3563 19.927 69.4058 19.8759C69.4553 19.8248 69.5544 19.7737 69.5544 19.6716C69.6039 19.6205 69.6039 19.4161 69.6039 19.1606V14.6132C69.6039 14.3577 69.6039 14.2044 69.5544 14.1022C69.5049 14 69.4553 13.9489 69.4058 13.8978C69.3563 13.8467 69.2078 13.8467 69.0098 13.8467H68.6633V12.7737H68.6138Z" fill="#29166f"/>
</g>
<defs>
<clipPath id="clip0_57_147">
<rect width="100" height="68.4672" fill="white"/>
</clipPath>
</defs>
</svg>